<?xml version="1.0" standalone="no"?>
<!DOCTYPE svg PUBLIC "-//W3C//DTD SVG 20010904//EN"
 "http://www.w3.org/TR/2001/REC-SVG-20010904/DTD/svg10.dtd">
<svg version="1.0" xmlns="http://www.w3.org/2000/svg"
 width="700.000000pt" height="700.000000pt" viewBox="0 0 700.000000 700.000000"
 preserveAspectRatio="xMidYMid meet">
<metadata>
Created by potrace 1.14, written by Peter Selinger 2001-2017
</metadata>
<g transform="translate(0.000000,700.000000) scale(0.100000,-0.100000)"
fill="#000000" stroke="none">
<path d="M787 6984 c-395 -85 -693 -387 -772 -781 -14 -70 -15 -353 -13 -2738
l3 -2660 27 -86 c56 -180 136 -315 255 -432 124 -123 254 -199 428 -254 l90
-28 2695 0 2695 0 90 28 c174 55 304 131 428 254 119 117 199 252 255 432 l27
86 0 2695 0 2695 -28 90 c-55 174 -131 304 -254 428 -117 119 -252 199 -432
255 l-86 27 -2670 2 c-2316 1 -2679 0 -2738 -13z m2928 -1464 c261 -29 481
-107 680 -239 157 -104 324 -302 395 -470 94 -220 103 -508 23 -710 -97 -246
-334 -440 -620 -508 -57 -13 -73 -21 -73 -34 0 -13 11 -20 38 -25 355 -62 567
-183 718 -411 95 -144 137 -296 137 -503 0 -296 -88 -506 -302 -721 -231 -231
-518 -366 -906 -425 -147 -22 -470 -22 -619 0 -480 71 -858 296 -1059 631 -77
129 -137 328 -137 458 l0 57 417 -2 416 -3 13 -62 c42 -208 237 -360 515 -404
92 -14 282 -6 364 16 281 77 449 286 432 540 -12 192 -114 338 -301 429 -156
77 -273 96 -598 96 l-198 0 0 304 0 304 273 4 c263 4 275 5 352 31 218 72 357
222 386 416 31 206 -70 415 -246 507 -116 61 -155 69 -325 68 -140 0 -163 -3
-235 -27 -206 -68 -343 -206 -380 -384 -8 -38 -15 -71 -15 -75 0 -5 -178 -8
-395 -8 l-395 0 0 59 c0 138 59 334 142 471 204 335 597 565 1061 619 104 12
337 12 442 1z"/>
</g>
</svg>
