<?xml version="1.0" standalone="no"?>
<!DOCTYPE svg PUBLIC "-//W3C//DTD SVG 20010904//EN"
 "http://www.w3.org/TR/2001/REC-SVG-20010904/DTD/svg10.dtd">
<svg version="1.0" xmlns="http://www.w3.org/2000/svg"
 width="700.000000pt" height="700.000000pt" viewBox="0 0 700.000000 700.000000"
 preserveAspectRatio="xMidYMid meet">
<metadata>
Created by potrace 1.14, written by Peter Selinger 2001-2017
</metadata>
<g transform="translate(0.000000,700.000000) scale(0.100000,-0.100000)"
fill="#000000" stroke="none">
<path d="M1315 6993 c-576 -76 -1063 -476 -1240 -1017 -76 -234 -70 -10 -70
-2476 0 -2110 1 -2209 19 -2290 133 -611 575 -1053 1186 -1186 81 -18 180 -19
2290 -19 l2205 0 104 23 c613 137 1068 612 1172 1221 19 113 19 166 16 2296
l-3 2180 -21 87 c-78 313 -202 537 -413 748 -208 208 -431 333 -730 408 l-105
27 -2190 1 c-1204 1 -2203 -1 -2220 -3z m345 -1059 c1088 -99 2138 -592 2920
-1374 519 -518 907 -1141 1150 -1846 145 -421 233 -897 247 -1341 l6 -193
-475 0 -475 0 -6 178 c-7 201 -25 350 -68 567 -121 607 -380 1162 -773 1655
-123 154 -402 435 -554 558 -664 538 -1413 821 -2294 868 l-128 6 0 475 0 475
143 -7 c78 -3 216 -13 307 -21z m-115 -1609 c376 -44 699 -136 1023 -290 879
-421 1514 -1218 1726 -2167 45 -198 76 -452 76 -615 l0 -73 -459 0 -458 0 -7
108 c-20 323 -95 606 -232 882 -364 731 -1077 1202 -1886 1247 l-118 6 0 459
0 458 103 0 c56 0 161 -7 232 -15z m474 -1860 c169 -40 340 -176 418 -332 100
-198 96 -436 -8 -620 -85 -148 -225 -258 -394 -309 -92 -28 -268 -26 -365 4
-201 63 -368 226 -431 422 -30 91 -37 263 -15 350 36 145 132 291 245 374 66
49 159 94 228 110 78 19 243 19 322 1z"/>
</g>
</svg>
